<svg xmlns="http://www.w3.org/2000/svg" viewBox="-1200 -400 2400 800" width="100%" height="100%">
    <style>
        .track-dark { stroke: #333333; stroke-width: 4; fill: none; stroke-linecap: square; stroke-linejoin: round; }
        .track-light { stroke: #AAAAAA; stroke-width: 4; fill: none; stroke-linecap: square; stroke-linejoin: round; }
        .platform { stroke: #99CCFF; stroke-width: 20; fill: none; stroke-linecap: butt; }
    </style>

    <line class="platform" x1="-470" y1="0" x2="0" y2="0"/>
    <line class="platform" x1="-470" y1="-50" x2="0" y2="-50"/>
    <line class="platform" x1="-470" y1="-100" x2="0" y2="-100"/>

    <!-- Outer 500m Fixed Blocks -->
    <path class="track-light" d="M -1130 0 L -630 0"/>
    <path class="track-light" d="M 160 0 L 660 0"/>

    <!-- Inner Tracks -->
    <path class="track-dark" d="M -630 0 L -590 0 L -550 0 L -470 0 L 0 0 L 80 0 L 120 0 L 160 0"/>
    <path class="track-dark" d="M -590 0 L -550 -50 L -510 -50 L -470 -50 L 0 -50 L 40 -50 L 80 -50 L 120 0"/>
    <path class="track-dark" d="M -510 -50 L -470 -100 L 0 -100 L 40 -50"/>

    <!-- Directional Triangles (Left to Right / Blue) -->
    <g transform="translate(-880, 0) rotate(0)">
        <polygon points="-10,-10 10,0 -10,10" fill="#0000FF"/>
    </g>
    <g transform="translate(410, 0) rotate(0)">
        <polygon points="-10,-10 10,0 -10,10" fill="#0000FF"/>
    </g>
</svg>