<svg xmlns="http://www.w3.org/2000/svg" viewBox="-1050 -70 1630 90" width="1630" height="90">
    <style>
        .track-dark { stroke: #000000; stroke-width: 4; fill: none; stroke-linecap: square; stroke-linejoin: round; }
        .track-light { stroke: #888888; stroke-width: 4; fill: none; stroke-linecap: square; stroke-linejoin: round; }
        .platform { stroke: #99CCFF; stroke-width: 12; fill: none; stroke-linecap: butt; }
    </style>

    <line class="platform" x1="-470" y1="0" x2="0" y2="0"/>
    <line class="platform" x1="-470" y1="-50" x2="0" y2="-50"/>

    <!-- Outer 500m Blocks (Grey) -->
    <path class="track-light" d="M -1050 0 L -550 0"/>
    <path class="track-light" d="M 80 0 L 580 0"/>

    <!-- Inner Tracks (Black) -->
    <path class="track-dark" d="M -550 0 L -510 0 L -470 0 L 0 0 L 40 0 L 80 0"/>
    <path class="track-dark" d="M -510 0 L -470 -50 L 0 -50 L 40 0"/>

    <!-- Directional Triangles in the middle of the platforms (Left to Right / Blue) -->
    <!-- Direct track (stop or drive through) -->
    <g transform="translate(-235, 0) rotate(0)">
        <polygon points="-33,-15 -3,0 -33,15" fill="#0000FF"/>
        <polygon points="3,-15 33,0 3,15" fill="#0000FF"/>
    </g>
    <!-- Diverging track (stop only) -->
    <g transform="translate(-235, -50) rotate(0)">
        <polygon points="-15,-15 15,0 -15,15" fill="#0000FF"/>
    </g>
</svg>